<svg xmlns="http://www.w3.org/2000/svg" width="512" height="512" viewBox="0 0 512 512">
  <rect width="512" height="512" rx="96" fill="#262C36"/>
  <g transform="translate(160,40) scale(0.68)">
    <rect x="18" y="10" width="248" height="558" fill="#ECEEF1"/>
    <path d="M 60 96 C 58 56 78 34 114 28 C 146 23 172 26 194 34 C 230 48 248 94 242 150 C 238 196 222 210 206 196 C 212 140 198 120 182 112 L 182 428 C 182 500 208 532 232 518 C 247 508 252 486 254 450 L 264 436 C 265 506 238 570 186 584 C 132 598 108 542 104 458 L 98 116 C 80 114 62 108 60 96 Z" fill="#B4BCC8"/>
    <clipPath id="b"><rect x="18" y="10" width="248" height="558"/></clipPath>
    <path d="M 60 96 C 58 56 78 34 114 28 C 146 23 172 26 194 34 C 230 48 248 94 242 150 C 238 196 222 210 206 196 C 212 140 198 120 182 112 L 182 428 C 182 500 208 532 232 518 C 247 508 252 486 254 450 L 264 436 C 265 506 238 570 186 584 C 132 598 108 542 104 458 L 98 116 C 80 114 62 108 60 96 Z" fill="#262C36" clip-path="url(#b)"/>
  </g>
</svg>
