<svg xmlns="http://www.w3.org/2000/svg" width="512" height="512" viewBox="0 0 512 512">
  <rect width="512" height="512" rx="96" fill="#262C36"/>
  <g transform="translate(160,40) scale(0.68)">
    <rect x="18" y="10" width="248" height="558" fill="#ECEEF1"/>
    <path id="l" d="M 76 96 C 74 56 94 34 130 28 C 162 23 188 26 210 34
      C 246 48 264 94 258 150 C 254 196 238 210 222 196
      C 228 140 214 120 198 112 L 198 428
      C 198 500 224 532 248 518 C 263 508 268 486 270 450
      L 280 436 C 281 506 254 570 202 584 C 148 598 124 542 120 458
      L 114 116 C 96 114 78 108 76 96 Z
      M 44 14 L 66 14 C 64 160 64 300 68 446 L 46 446 C 42 300 42 160 44 14 Z" fill="#B4BCC8"/>
    <clipPath id="b"><rect x="18" y="10" width="248" height="558"/></clipPath>
    <path d="M 76 96 C 74 56 94 34 130 28 C 162 23 188 26 210 34
      C 246 48 264 94 258 150 C 254 196 238 210 222 196
      C 228 140 214 120 198 112 L 198 428
      C 198 500 224 532 248 518 C 263 508 268 486 270 450
      L 280 436 C 281 506 254 570 202 584 C 148 598 124 542 120 458
      L 114 116 C 96 114 78 108 76 96 Z
      M 44 14 L 66 14 C 64 160 64 300 68 446 L 46 446 C 42 300 42 160 44 14 Z" fill="#262C36" clip-path="url(#b)"/>
  </g>
</svg>
