<svg xmlns="http://www.w3.org/2000/svg" width="300" height="640" viewBox="0 0 300 640">
  <rect width="300" height="640" fill="#39414D"/>
  <defs><clipPath id="panel"><rect x="18" y="10" width="248" height="558"/></clipPath></defs>
  <rect x="18" y="10" width="248" height="558" fill="#ECEEF1"/>
  <path d="M 60 96 C 58 56 78 34 114 28 C 146 23 172 26 194 34 C 230 48 248 94 242 150 C 238 196 222 210 206 196 C 212 140 198 120 182 112 L 182 428 C 182 500 208 532 232 518 C 247 508 252 486 254 450 L 264 436 C 265 506 238 570 186 584 C 132 598 108 542 104 458 L 98 116 C 80 114 62 108 60 96 Z" fill="#B4BCC8"/>
  <path d="M 60 96 C 58 56 78 34 114 28 C 146 23 172 26 194 34 C 230 48 248 94 242 150 C 238 196 222 210 206 196 C 212 140 198 120 182 112 L 182 428 C 182 500 208 532 232 518 C 247 508 252 486 254 450 L 264 436 C 265 506 238 570 186 584 C 132 598 108 542 104 458 L 98 116 C 80 114 62 108 60 96 Z" fill="#39414D" clip-path="url(#panel)"/>
</svg>
